# xmcd
#
# Track frame offsets: 
#        150
#        20708
#        38754
#        65066
#        92967
#        127766
#        156932
#
# Disc length: 2523 seconds
#
# Revision: 1
# Processed by: cddbd v1.5.2PL0 Copyright (c) Steve Scherf et al.
# Submitted via: ExactAudioCopy v1.3
#
DISCID=5909d907
DTITLE=Brown Sabbath - Brown Sabbath
DYEAR=2014
DGENRE=Heavy Metal
TTITLE0=The Wizard
TTITLE1=Iron Man
TTITLE2=N.I.B.
TTITLE3=Black Sabbath
TTITLE4=Hand Of Doom
TTITLE5=Into The Void
TTITLE6=Planet Caravan
EXTD=
EXTT0=
EXTT1=
EXTT2=
EXTT3=
EXTT4=
EXTT5=
EXTT6=
PLAYORDER=
